
<svg version="1.1" id="Layer_1" xmlns="http://www.w3.org/2000/svg" viewBox="58 0 354 354" xml:space="preserve" fill="#000000">
  <circle style="fill:#4DA3FF;" cx="234.883" cy="175.818" r="175.818"/>
  <path style="fill:#99FFB1;" d="M212.737,50.071H112.023c-32.669,31.924-52.958,76.464-52.958,125.75 c0,44.832,16.789,85.738,44.411,116.793h86.738c13.395,0,24.255-10.859,24.255-24.255c0-13.396-10.859-24.255-24.255-24.255 h-56.722c-13.395,0-24.254-10.859-24.254-24.254l0,0c0-13.395,10.859-24.255,24.254-24.255h56.722 c13.395,0,24.255-10.859,24.255-24.255l0,0c0-13.395-10.859-24.254-24.255-24.254h-45.461c-13.395,0-24.254-10.859-24.254-24.254 l0,0c0-13.395,10.859-24.255,24.254-24.255h67.983c13.395,0,24.255-10.859,24.255-24.255l0,0 C236.991,60.93,226.132,50.071,212.737,50.071z"/>
  <path style="fill:#99FFB1;" d="M410.709,175.821c0-32.308-8.723-62.575-23.93-88.59H286.593c-13.395,0-24.255,10.859-24.255,24.255 s10.859,24.255,24.255,24.255h56.722c13.395,0,24.254,10.859,24.254,24.254l0,0c0,13.395-10.859,24.255-24.254,24.255h-56.722 c-13.395,0-24.255,10.859-24.255,24.255l0,0c0,13.395,10.859,24.254,24.255,24.254h114.685 C407.388,214.9,410.709,195.75,410.709,175.821z"/>
  <path style="fill:#56D676;" d="M295.966,270.579h-25.12c-10.159,0-18.394,8.235-18.394,18.394l0,0 c0,10.159,8.235,18.394,18.394,18.394h25.12c10.159,0,18.394-8.235,18.394-18.394l0,0 C314.361,278.814,306.125,270.579,295.966,270.579z"/>
  <path style="opacity:0.15;fill:#293133;enable-background:new ;" d="M97.352,175.821c0-90.634,68.581-165.239,156.678-174.781 C247.742,0.36,241.357,0,234.887,0C137.784,0,59.065,78.718,59.065,175.821s78.718,175.821,175.821,175.821 c6.469,0,12.856-0.36,19.144-1.042C165.934,341.062,97.352,266.455,97.352,175.821z"/>
</svg>