<svg height="200px" width="200px" version="1.1" id="Layer_1" xmlns="http://www.w3.org/2000/svg" xmlns:xlink="http://www.w3.org/1999/xlink" viewBox="216 7 175 176" xml:space="preserve" fill="#000000">
  <g id="mars">
    <path style="fill:#D75A4A;" d="M390.508,95.458c0,47.928-38.851,86.78-86.78,86.78s-86.78-38.851-86.78-86.78 s38.851-86.78,86.78-86.78S390.508,47.529,390.508,95.458"/>
      <g>
      <path style="fill:#E57E25;" d="M386.524,69.424h-30.729c-4.79,0-8.678,3.888-8.678,8.678s3.888,8.678,8.678,8.678h34.278 C389.474,80.792,388.268,74.986,386.524,69.424"/>
          <path style="fill:#E57E25;" d="M388.765,112.814h-59.001c-4.79,0-8.678,3.888-8.678,8.678s3.888,8.678,8.678,8.678h53.474 C385.65,124.65,387.541,118.853,388.765,112.814"/>
          <path style="fill:#E57E25;" d="M321.085,43.39h-86.658c-4.027,5.354-7.489,11.143-10.205,17.356h96.863 c4.79,0,8.678-3.888,8.678-8.678S325.875,43.39,321.085,43.39"/>
          <path style="fill:#E57E25;" d="M269.017,86.78h-51.634c-0.278,2.855-0.434,5.745-0.434,8.678c0,2.933,0.156,5.823,0.434,8.678 h51.634c4.79,0,8.678-3.888,8.678-8.678S273.807,86.78,269.017,86.78"/>
          <path style="fill:#E57E25;" d="M303.729,138.847h-75.073c3.662,6.326,8.062,12.167,13.147,17.356h61.926 c4.79,0,8.678-3.888,8.678-8.678S308.519,138.847,303.729,138.847"/>
    </g>
  </g>
</svg>